<svg xmlns="http://www.w3.org/2000/svg" width="48" height="48" viewBox="0 0 48 48">
  <g id="android" transform="translate(-431 -291)">
    <rect id="Rectangle_106" data-name="Rectangle 106" width="48" height="48" transform="translate(431 291)" fill="none"/>
    <path id="android-2" data-name="android" d="M41.682,18.253a3.413,3.413,0,0,0-3.416,3.413v12.1a3.416,3.416,0,1,0,6.832,0v-12.1A3.413,3.413,0,0,0,41.682,18.253Zm-33.889,0a3.413,3.413,0,0,0-3.416,3.413v12.1a3.416,3.416,0,1,0,6.832,0v-12.1A3.412,3.412,0,0,0,7.793,18.253ZM31.535,8.079l2.051-3.707a.922.922,0,1,0-1.613-.895L29.866,7.27a13.887,13.887,0,0,0-10.256,0L17.5,3.48a.922.922,0,1,0-1.613.895L17.94,8.082a11.773,11.773,0,0,0-6.162,10.171.55.55,0,0,0,.005.091.164.164,0,0,0-.005.051v0H37.694v-.144A11.775,11.775,0,0,0,31.535,8.079ZM18.755,13.336a.924.924,0,1,1,.929-.924A.925.925,0,0,1,18.755,13.336Zm11.966,0a.924.924,0,1,1,.919-.924A.926.926,0,0,1,30.721,13.336ZM11.778,38.045a3.132,3.132,0,0,0,3.136,3.128h1.565v6.413a3.416,3.416,0,0,0,6.832,0V41.173h2.847v6.413a3.416,3.416,0,0,0,6.832,0V41.173h1.565a3.132,3.132,0,0,0,3.136-3.128V19.1H11.778Z" transform="translate(429.885 288.001)" fill="#79c257"/>
  </g>
</svg>
