<svg xmlns="http://www.w3.org/2000/svg" width="48" height="48" viewBox="0 0 48 48">
  <g id="apple" transform="translate(-299 -291)">
    <rect id="Rectangle_107" data-name="Rectangle 107" width="48" height="48" transform="translate(299 291)" fill="none"/>
    <path id="apple-2" data-name="apple" d="M43.57,39.406a26.052,26.052,0,0,1-2.578,4.639,23.675,23.675,0,0,1-3.323,4.02A6.459,6.459,0,0,1,33.4,49.944,10.707,10.707,0,0,1,29.45,49a11.308,11.308,0,0,0-4.25-.937A11.7,11.7,0,0,0,20.831,49a11.656,11.656,0,0,1-3.776.992,6.063,6.063,0,0,1-4.366-1.929A24.856,24.856,0,0,1,9.212,43.9a28.737,28.737,0,0,1-3.674-7.3A26.77,26.77,0,0,1,3.994,27.9,15.894,15.894,0,0,1,6.08,19.584a12.265,12.265,0,0,1,4.369-4.422,11.743,11.743,0,0,1,5.91-1.672,13.845,13.845,0,0,1,4.571,1.066,14.757,14.757,0,0,0,3.627,1.066,21.848,21.848,0,0,0,4.023-1.258,13.285,13.285,0,0,1,5.463-.97q6.061.489,9.092,4.786-5.417,3.284-5.361,9.185A10.126,10.126,0,0,0,41.1,35a10.936,10.936,0,0,0,3.321,2.179c-.268.775-.551,1.515-.849,2.227ZM34.309,2.961a10.251,10.251,0,0,1-2.624,6.715c-2.111,2.465-4.662,3.892-7.427,3.667a7.462,7.462,0,0,1-.053-.909,10.5,10.5,0,0,1,2.786-6.788A10.725,10.725,0,0,1,30.382,3.1,10.112,10.112,0,0,1,34.261,2a9.514,9.514,0,0,1,.048.962Z" transform="translate(298.797 289.001)" fill="#7d7d7d"/>
  </g>
</svg>
