<svg xmlns="http://www.w3.org/2000/svg" width="48" height="48.004" viewBox="0 0 48 48.004">
  <g id="Group_101" data-name="Group 101" transform="translate(-282 -291)">
    <rect id="Rectangle_104" data-name="Rectangle 104" width="48" height="48" transform="translate(282 291)" fill="none"/>
    <g id="Linux">
      <g id="Group_99" data-name="Group 99" transform="translate(289.05 297)">
        <path id="body" d="M12.813-.385c2.746.069,15.243,8.743,15.243,17.028S22.334,30.718,14.049,30.718.8,24.516.8,16.231,10.066-.454,12.813-.385Z" transform="translate(3.748 7.615)" fill="#fff"/>
        <path id="eye" d="M4,0C6.21,0,8,1.343,8,3S7.21,5.875,5,5.875,0,4.657,0,3,1.791,0,4,0Z" transform="translate(14.951)" fill="#fff"/>
        <path id="eye-2" data-name="eye" d="M3.11,0C5.319,0,5.579,1.093,5.579,2.75A3.384,3.384,0,0,1,2.235,6.282C.026,6.282,1.2,3.5,1.2,1.844S.9,0,3.11,0Z" transform="translate(9.841)" fill="#fff"/>
        <path id="l" d="M7.64.068C8.819.8,8.454,3.441,11.46,6.65s1.99,7.11-3.414,5.647S.407,12.582.53,7.056,6.46-.663,7.64.068Z" transform="translate(-0.525 27.934)" fill="#ebb603"/>
        <path id="r" d="M6.517-.2c4.419,0,7.594,5.313,6.844,6.563S7.3,12.957,4.8,13.613s-3.75-2.5-2.25-7.094S2.1-.2,6.517-.2Z" transform="translate(20.852 27.802)" fill="#ebb603"/>
        <path id="mouth" d="M4.939.529c2.875-.848,6.751,2.91,6.844,3.317S5.646,7.336,5.6,7.44,0,5.8,0,3.6c0,0-.006.476,0,.25C0,1.862,2.064,1.377,4.939.529Z" transform="translate(10.95 4.405)" fill="#ebb603"/>
      </g>
      <path id="iconmonstr-linux-os-1" d="M38.165,38.1c-1.1-.892-.672-2.862-1.814-3.834C37.457,27.536,34.357,21.6,30.66,17.8c-3.1-3.19-2.1-6.295-2.1-8.981C28.558,4.528,26.8,0,21.458,0c-5.706,0-7.271,4.76-7.327,7.477-.136,6.525,1.318,8.221-2.5,12.969C7.138,26.032,6.476,31.6,7.49,34.561a5.848,5.848,0,0,1-2.31,1.67c-3.3,1.44-.882,3.85-1.8,5.56A3.141,3.141,0,0,0,3,43.272c0,1.5,1.192,2.8,3.358,2.6,2.922-.26,5.618,1.81,7.363,1.81A3.743,3.743,0,0,0,17.113,45.6a19.315,19.315,0,0,1,8.907.118A3.5,3.5,0,0,0,29.344,48c3.262,0,3.89-3.7,7.633-4.95A3.082,3.082,0,0,0,39,40.077a2.508,2.508,0,0,0-.838-1.976Zm-18.3-20.932c-.638,0-1.166-.516-2-1.136-1.056-.784-2.13-1.236-2.118-2.06,0-.566.758-.74,1.738-1.362,1.052-.666,1.462-1.342,2.5-1.342,1.06,0,1.38.536,2.82,1.158,1.416.614,2.4.854,2.4,1.546,0,.71-1.482,1.218-2.316,1.736C21.668,16.465,21.037,17.169,19.869,17.169ZM23.2,6.739c1.764.282,1.962,3.382,1.118,4.908l-.71-.29c.368-1.086.362-2.874-.87-2.988-.782-.072-1.286.96-1.394,1.844A3.373,3.373,0,0,0,20.3,9.959c.124-1.846,1.316-3.474,2.9-3.22ZM16.393,7.4c1.352-.336,2.15,1.236,2.156,2.87l-.62.38c-.084-.686-.39-1.794-1.158-1.558-.822.256-.688,2.166-.23,2.558l-.612.34c-.84-1.414-.838-4.266.464-4.59ZM12.163,45.89C8.236,44.1,6.9,44.51,6.152,44.51c-1.554,0-2.062-1.158-1.478-2.254a4.111,4.111,0,0,0,.22-2.686c-.188-1.2-.222-1.588.956-2.1a6.814,6.814,0,0,0,2.894-2.248c1.516-1.874,3.046,1.074,4.3,3.7.814,1.7,2.416,2.564,2.91,4.45.454,1.742-1.42,3.6-3.792,2.522Zm13.975-3.748c-2.768,1.346-6.295,1.964-8.933.6a7.11,7.11,0,0,0-1.686-2.586,1.849,1.849,0,0,0,.92-2.978c-1.022-1.442-3.11-2.448-5.22-4.08-1.974-1.526-2.6-5.288.09-9.493-1.31,3.724-.544,7.157.114,8.139a16.8,16.8,0,0,1,2.992-9.231c1.362-2,1.382-4.632,1.412-6.281l1.24.848c.912.674,1.676,1.416,2.772,1.416,1.62,0,2.516-.932,3.764-1.706.488-.3,1.226-.6,1.846-1.026,1.04,4.952,5.348,10.909,5.59,14.3,1-2.064-.284-7.029-.284-7.029,1.684,2.57,1.818,4.712,1.892,7.341a4.155,4.155,0,0,1,2.558,3.392l-.49-.056c-.252-1.838-5.214-4.538-5.66-1.078-2.38.362-1.514,4.132-1.994,6.577A24.412,24.412,0,0,1,26.138,42.141Zm9.693-.082a11.508,11.508,0,0,0-4.214,3.376c-1.76,1.932-4.088,1.006-4.336-.8-.262-1.932.72-2.986,1.144-5.148.386-1.974-.046-5.012.862-5.336.59,3.506,4.132,2.032,4.94,1.076,1.314,0,1.424.444,1.718,1.674a4.335,4.335,0,0,0,1.156,2.18c.836.894.58,2.266-1.27,2.98Zm-16-26.014a4.885,4.885,0,0,1-3.068-1.538c-.406-.342.1-.974.506-.63a4.182,4.182,0,0,0,2.562,1.35c1.214,0,2.284-1.038,3.734-1.61a.408.408,0,0,1,.286.764C22.442,14.935,21.311,16.045,19.829,16.045Z" transform="translate(285 291)"/>
    </g>
  </g>
</svg>
