<svg xmlns="http://www.w3.org/2000/svg" width="341.46" height="98.706" viewBox="0 0 341.46 98.706">
  <g id="Group_117" data-name="Group 117" transform="translate(-125 -753)">
    <g id="Discord-Logo-White" transform="translate(90 733)">
      <path id="Path_32" data-name="Path 32" d="M99.234,103.9a5.5,5.5,0,1,0,5.034,5.478A5.258,5.258,0,0,0,99.234,103.9Zm18.014,0a5.5,5.5,0,1,0,5.034,5.478A5.258,5.258,0,0,0,117.248,103.9Z" transform="translate(-29.983 -42.493)" fill="#fff"/>
      <path id="Path_33" data-name="Path 33" d="M111.25,20H45.117A10.142,10.142,0,0,0,35,30.167V96.892a10.142,10.142,0,0,0,10.117,10.167h55.966l-2.616-9.13,6.317,5.873,5.972,5.528,10.611,9.377V30.167A10.142,10.142,0,0,0,111.25,20ZM92.2,84.455s-1.777-2.122-3.257-4c6.465-1.826,8.933-5.873,8.933-5.873A28.241,28.241,0,0,1,92.2,77.5a32.484,32.484,0,0,1-7.156,2.122,34.573,34.573,0,0,1-12.782-.049,41.429,41.429,0,0,1-7.255-2.122,28.924,28.924,0,0,1-3.6-1.678c-.148-.1-.3-.148-.444-.247a.681.681,0,0,1-.2-.148c-.888-.494-1.382-.839-1.382-.839s2.369,3.948,8.637,5.824c-1.481,1.875-3.307,4.1-3.307,4.1-10.907-.345-15.053-7.5-15.053-7.5a66.091,66.091,0,0,1,7.107-28.773A24.405,24.405,0,0,1,70.633,43l.494.592c-8.884,2.566-12.98,6.465-12.98,6.465s1.086-.592,2.912-1.431a37.062,37.062,0,0,1,11.2-3.109,4.863,4.863,0,0,1,.839-.1,41.758,41.758,0,0,1,9.969-.1,40.231,40.231,0,0,1,14.855,4.738s-3.9-3.7-12.289-6.268l.691-.79A24.405,24.405,0,0,1,100.2,48.181,66.091,66.091,0,0,1,107.3,76.953S103.107,84.11,92.2,84.455Z" transform="translate(0 0)" fill="#fff"/>
    </g>
    <path id="bx-transfer-alt" d="M47.166,20.8a2.71,2.71,0,0,0-.588-2.955L33.024,4.293,29.191,8.126l8.927,8.927H4v5.422H44.662A2.712,2.712,0,0,0,47.166,20.8ZM4.206,29.568a2.71,2.71,0,0,0,.588,2.955L18.348,46.077l3.833-3.833-8.927-8.927H47.372V27.9H6.711A2.708,2.708,0,0,0,4.206,29.568Z" transform="translate(243 776.707)" fill="#fff"/>
    <path id="logo-white-full" d="M.99,0V-35.64H28.82l7.81,7.26v8.58l-4.455,4.345,4.455,4.4V0H25.52L18.1-7.15V0ZM38.61,0H63.14V-35.64H38.61Zm65.23-28.38V-7.26L96.525,0H72.435L65.12-7.26V-28.38l7.315-7.26h24.09ZM114.73,0V-15.9h-8.91V-35.64h35.64v19.8H132.6V0Z" transform="translate(325 820)" fill="#fff"/>
  </g>
</svg>
