<?xml version="1.0"?>
<svg xmlns="http://www.w3.org/2000/svg" xmlns:xlink="http://www.w3.org/1999/xlink" version="1.1" viewBox="0 0 192 192" width="26px" height="26px"><g fill="none" fill-rule="nonzero" stroke="none" stroke-width="1" stroke-linecap="butt" stroke-linejoin="miter" stroke-miterlimit="10" stroke-dasharray="" stroke-dashoffset="0" font-family="none" font-weight="none" font-size="none" text-anchor="none" style="mix-blend-mode: normal"><path d="M0,192v-192h192v192z" fill="none"/><g fill="#ffffff"><g id="surface1"><path d="M156,0h-120c-19.875,0 -36,16.125 -36,36v120c0,19.875 16.125,36 36,36h120c19.875,0 36,-16.125 36,-36v-120c0,-19.875 -16.125,-36 -36,-36zM151.125,103.41346h-17.97116v66.49039h-30v-66.49039h-11.65385v-22.41346h11.65385v-14.27885c0,-18.69231 7.75961,-29.79808 29.82693,-29.79808h22.32692v22.32693h-12.98077c-8.56731,0 -9.14424,3.17307 -9.14424,9.17307l-0.02884,12.57692h20.42308z"/></g></g></g></svg>
