<?xml version="1.0"?>
<svg xmlns="http://www.w3.org/2000/svg" xmlns:xlink="http://www.w3.org/1999/xlink" version="1.1" viewBox="0 0 192 192" width="26px" height="26px"><g fill="none" fill-rule="nonzero" stroke="none" stroke-width="1" stroke-linecap="butt" stroke-linejoin="miter" stroke-miterlimit="10" stroke-dasharray="" stroke-dashoffset="0" font-family="none" font-weight="none" font-size="none" text-anchor="none" style="mix-blend-mode: normal"><path d="M0,192v-192h192v192z" fill="none"/><g fill="#ffffff"><g id="surface1"><path d="M55.73077,0c-30.69231,0 -55.73077,25.03846 -55.73077,55.73077v80.53846c0,30.69231 25.03846,55.73077 55.73077,55.73077h80.53846c30.69231,0 55.73077,-25.03846 55.73077,-55.73077v-80.53846c0,-30.69231 -25.03846,-55.73077 -55.73077,-55.73077zM55.73077,14.76923h80.53846c22.70192,0 40.96154,18.23077 40.96154,40.96154v80.53846c0,22.70192 -18.23077,40.96154 -40.96154,40.96154h-80.53846c-22.70192,0 -40.96154,-18.23077 -40.96154,-40.96154v-80.53846c0,-22.70192 18.23077,-40.96154 40.96154,-40.96154zM151.38462,29.53846c-6.11538,0 -11.07692,4.96154 -11.07692,11.07692c0,6.11538 4.96154,11.07692 11.07692,11.07692c6.11538,0 11.07692,-4.96154 11.07692,-11.07692c0,-6.11538 -4.96154,-11.07692 -11.07692,-11.07692zM96,44.30769c-28.47116,0 -51.69231,23.22115 -51.69231,51.69231c0,28.47116 23.22115,51.69231 51.69231,51.69231c28.47116,0 51.69231,-23.22115 51.69231,-51.69231c0,-28.47116 -23.22115,-51.69231 -51.69231,-51.69231zM96,59.07692c20.48077,0 36.92308,16.44231 36.92308,36.92308c0,20.48077 -16.4423,36.92308 -36.92308,36.92308c-20.48077,0 -36.92308,-16.4423 -36.92308,-36.92308c0,-20.48077 16.44231,-36.92308 36.92308,-36.92308z"/></g></g></g></svg>
